<mxfile host="app.diagrams.net" modified="2024-01-24T01:03:45.116Z" agent="Mozilla/5.0 (Windows NT 10.0; Win64; x64) AppleWebKit/537.36 (KHTML, like Gecko) Chrome/120.0.0.0 Safari/537.36" version="23.0.0" etag="RDfN0rhHRgf7SkN5t53g" type="github">
  <diagram name="Halaman-1" id="1zip83bo-LANI-pyMmi3">
    <mxGraphModel>
      <root>
        <mxCell id="0" />
        <mxCell id="1" parent="0" />
      </root>
    </mxGraphModel>
  </diagram>
</mxfile>
